<svg id="Capa_1" enable-background="new 0 0 512 512" height="512" viewBox="0 0 512 512" width="512" xmlns="http://www.w3.org/2000/svg"><g><path d="m505.499 159.634-72.995-132.719c-9.269-16.853-26.287-26.915-45.521-26.915s-36.252 10.062-45.521 26.915l-41.297 75.085h-285.165c-8.284 0-15 6.716-15 15v380c0 6.067 3.654 11.537 9.26 13.858 1.855.769 3.805 1.142 5.737 1.142 3.903 0 7.74-1.524 10.609-4.394l55.607-55.606h313.787c8.284 0 15-6.716 15-15v-200.377h49.978c18.558 0 35.275-9.537 44.72-25.51 9.445-15.974 9.745-35.218.801-51.479zm-125.499 262.366h-305c-3.979 0-7.794 1.581-10.606 4.394l-34.394 34.393v-328.787h253.664l-15.198 27.634c-8.943 16.261-8.644 35.505.802 51.479 9.444 15.974 26.162 25.51 44.72 25.51h66.012zm98.874-226.156c-4.051 6.851-10.938 10.779-18.896 10.779h-145.99c-7.958 0-14.846-3.929-18.896-10.779-4.05-6.851-4.174-14.779-.338-21.752l72.995-132.719c3.915-7.122 11.107-11.373 19.234-11.373s15.318 4.251 19.234 11.373l72.995 132.719c3.836 6.973 3.712 14.901-.338 21.752z"/><path d="m386.983 60c-8.284 0-15 6.716-15 15v50c0 8.284 6.716 15 15 15s15-6.716 15-15v-50c0-8.284-6.716-15-15-15z"/><circle cx="386.983" cy="170" r="15"/><path d="m295 362h-7.482l-14.774-81.262c-3.028-16.652-17.51-28.738-34.435-28.738h-66.617c-16.925 0-31.407 12.086-34.436 28.739l-14.774 81.261h-7.482c-8.284 0-15 6.716-15 15s6.716 15 15 15h180c8.284 0 15-6.716 15-15s-6.716-15-15-15zm-142.027 0 13.799-75.894c.433-2.379 2.502-4.106 4.92-4.106h66.617c2.418 0 4.487 1.727 4.92 4.105l13.799 75.895z"/><path d="m205 222c8.284 0 15-6.716 15-15v-30c0-8.284-6.716-15-15-15s-15 6.716-15 15v30c0 8.284 6.716 15 15 15z"/><path d="m126.165 222.13c2.218 6.091 7.97 9.874 14.097 9.874 1.703 0 3.436-.292 5.129-.909 7.785-2.833 11.799-11.441 8.966-19.226l-10.261-28.191c-2.835-7.785-11.441-11.801-19.226-8.965-7.785 2.833-11.799 11.441-8.966 19.226z"/></g></svg>