<svg id="Capa_1" enable-background="new 0 0 512 512" height="512" viewBox="0 0 512 512" width="512" xmlns="http://www.w3.org/2000/svg"><g><path d="m497 0h-421c-8.284 0-15 6.716-15 15v46h-46c-8.284 0-15 6.716-15 15v421c0 6.044 3.628 11.498 9.203 13.834 1.872.785 3.841 1.166 5.794 1.166 3.862 0 7.66-1.492 10.522-4.307l56.622-55.693h353.859c8.284 0 15-6.716 15-15v-25.206l35.481 34.9c2.862 2.815 6.66 4.307 10.521 4.307 1.953 0 3.923-.382 5.795-1.166 5.574-2.336 9.202-7.79 9.202-13.834v-421.001c.001-8.284-6.715-15-14.999-15zm-76 422h-345c-3.935 0-7.713 1.546-10.519 4.306l-35.481 34.9v-370.206h391zm61-21.794-31-30.492v-293.714c0-8.284-6.716-15-15-15h-345v-31h391z"/><path d="m75.5 391.5h240c8.284 0 15-6.716 15-15v-45h45c8.284 0 15-6.716 15-15v-180c0-8.284-6.716-15-15-15h-240c-8.284 0-15 6.716-15 15v45h-45c-8.284 0-15 6.716-15 15v180c0 8.284 6.716 15 15 15zm33.057-30 36.944-42.221 25.047 28.625c2.783 3.181 6.778 5.04 11.003 5.12 4.221.086 8.289-1.626 11.19-4.698l37.759-39.979 50.201 53.154h-172.144zm41.943-210h210v150h-30v-105c0-8.284-6.716-15-15-15h-165zm150 60v127.272l-59.095-62.571c-2.833-3-6.778-4.701-10.905-4.701s-8.072 1.7-10.905 4.701l-37.335 39.531-25.471-29.109c-2.848-3.255-6.963-5.123-11.289-5.123s-8.44 1.867-11.289 5.123l-43.711 49.955v-125.078z"/><circle cx="180.5" cy="256.5" r="15"/></g></svg>